Coordinates
version=1
nRows=27
nColumns=12
inDegrees=yes

Units are S.I. units (second, meters, Newtons, ...)
Angles are in degrees

endheader
time	SC_y	SC_z	SC_x	AC_y	AC_z	AC_x	GH_y	GH_z	GH_yy	EL_x	PS_y
       0.0              -44.48          3.292          75.34          65.06         -19.32         -13.07         -75.88          77.91          52.86          130.6          124.9
   0.03187              -44.48          3.294          75.34          65.06         -19.32         -13.06         -75.88          77.89          52.86          130.6          124.9
   0.06373              -44.47          3.296          75.34          65.06         -19.31         -13.06         -75.88          77.88          52.86          130.6          124.8
    0.0956              -44.47          3.298          75.34          65.05         -19.31         -13.05         -75.88          77.87          52.86          130.6          124.8
    0.1275              -44.47            3.3          75.33          65.05          -19.3         -13.05         -75.88          77.86          52.86          130.5          124.8
    0.1593              -44.47          3.302          75.33          65.05          -19.3         -13.04         -75.87          77.84          52.86          130.5          124.8
    0.1912              -44.46          3.304          75.33          65.04         -19.29         -13.03         -75.87          77.82          52.86          130.5          124.8
    0.2231              -44.46          3.307          75.33          65.04         -19.29         -13.03         -75.87          77.81          52.86          130.5          124.8
    0.2549              -44.46           3.31          75.33          65.03         -19.28         -13.02         -75.87          77.79          52.86          130.5          124.7
    0.2868              -44.45          3.313          75.33          65.03         -19.28         -13.01         -75.87          77.77          52.86          130.4          124.7
    0.3187              -44.45          3.316          75.33          65.02         -19.27          -13.0         -75.86          77.75          52.86          130.4          124.7
    0.3505              -44.44          3.319          75.33          65.02         -19.26          -13.0         -75.86          77.73          52.86          130.4          124.7
    0.3824              -44.44          3.323          75.33          65.01         -19.25         -12.99         -75.86           77.7          52.86          130.4          124.6
    0.4143              -44.44          3.327          75.32          65.01         -19.24         -12.98         -75.85          77.68          52.86          130.3          124.6
    0.4461              -44.43          3.331          75.32           65.0         -19.23         -12.96         -75.85          77.65          52.87          130.3          124.6
     0.478              -44.42          3.336          75.32          64.99         -19.22         -12.95         -75.85          77.62          52.87          130.3          124.5
    0.5099              -44.42          3.341          75.32          64.98         -19.21         -12.94         -75.84          77.58          52.87          130.3          124.5
    0.5417              -44.41          3.347          75.32          64.98          -19.2         -12.92         -75.84          77.55          52.87          130.2          124.4
    0.5736               -44.4          3.353          75.31          64.97         -19.19         -12.91         -75.83          77.51          52.87          130.2          124.4
    0.6055               -44.4          3.359          75.31          64.96         -19.17         -12.89         -75.83          77.46          52.87          130.1          124.3
    0.6373              -44.39          3.367          75.31          64.94         -19.16         -12.87         -75.82          77.42          52.87          130.1          124.3
    0.6692              -44.38          3.375          75.31          64.93         -19.14         -12.85         -75.82          77.36          52.88          130.0          124.2
     0.701              -44.37          3.383           75.3          64.92         -19.12         -12.83         -75.81           77.3          52.88          130.0          124.1
    0.7329              -44.35          3.393           75.3           64.9          -19.1         -12.81          -75.8          77.24          52.88          129.9          124.0
    0.7648              -44.34          3.404          75.29          64.88         -19.07         -12.78         -75.79          77.17          52.88          129.8          123.9
    0.7966              -44.33          3.416          75.29          64.87         -19.04         -12.75         -75.78          77.09          52.89          129.7          123.8
    0.8285              -44.31           3.43          75.28          64.84         -19.01         -12.71         -75.77           77.0          52.89          129.6          123.7
